<svg xmlns="http://www.w3.org/2000/svg" viewBox="0 0 326.77 448.54"><defs><style>.cls-1{fill:#026b50;stroke:#fff;stroke-miterlimit:10;}.cls-2{fill:#fff;}</style></defs><title>green-r</title><g id="Layer_1" data-name="Layer 1"><path class="cls-1" d="M445.16,262.63c0,90-68,196.91-161.85,284.47-95.85-86.53-163.92-194.51-163.92-284.47a162.89,162.89,0,1,1,325.77,0Z" transform="translate(-118.89 -99.24)"/></g><g id="R_white" data-name="R white"><path class="cls-2" d="M362.27,360.93c-1.5,0-4.5,0-7.5-.25-31.75-1.5-41-8.25-48.5-18.75-10-13.75-17.25-29-25.75-44-3.75-6.75-7.25-8.25-15.25-8.25l-5-.25v36.5c0,20.25,2.5,22,21.25,24.25v9.25H205v-9.25c19-2,21.25-4,21.25-24.25V230.18c0-19.75-2.5-22.5-21.25-24v-9.25h72.5c22.25,0,35,2.5,45.25,9.5,10,6.75,16.75,17.75,16.75,33.25,0,22.25-14.75,34-31.25,40.5,3.75,7.5,13.5,23.75,21,35.25,8.75,13.75,14.25,20.5,19,26,5.75,6.5,8.5,8.5,15.75,11ZM267,279.18c10.75,0,19-1.75,24.5-6.5,8.25-7,11.75-16.5,11.75-29.25,0-26.5-15.25-36-29.25-36-6.75,0-10,1-11.5,2.5-1.75,1.5-2.25,4.5-2.25,9.5v59.75Z" transform="translate(-118.89 -99.24)"/></g></svg>