<svg xmlns="http://www.w3.org/2000/svg" viewBox="0 0 326.77 448.54"><defs><style>.cls-1{fill:#026b50;stroke:#fff;stroke-miterlimit:10;}.cls-2{fill:#fff;}</style></defs><title>green-e</title><g id="Layer_1" data-name="Layer 1"><path class="cls-1" d="M445.16,262.63c0,90-68,196.91-161.85,284.47-95.85-86.53-163.92-194.51-163.92-284.47a162.89,162.89,0,1,1,325.77,0Z" transform="translate(-118.89 -99.24)"/></g><g id="E_white" data-name="E white"><path class="cls-2" d="M351.27,316.93c-1.25,6.75-8.25,35.5-10.5,42.5H211v-9c22.75-2.25,24.25-3.5,24.25-24.5v-95.5c0-21.25-3-22.75-20-24.25v-9.25h81.25c26.25,0,35-.25,38.5-.5.25,4.5,1.5,25,2.5,40.5l-9.75,1.25c-2.25-8.5-6.5-18.75-10.75-23.25-4.5-5-7.75-6.5-20.5-6.5H280.27c-9.5,0-10.5.5-10.5,9v52.25h24.5c14,0,16.5-3.75,20.25-21.5h9.75v55.75h-9.75c-4-18.5-6-21.5-20.5-21.5H269.77v43c0,17.25.5,22.5,16,22.75h17.75c14,0,17.75-1.75,23.25-8.5,6.25-7.25,11.25-16.5,15.25-25Z" transform="translate(-118.89 -99.24)"/></g></svg>