<svg xmlns="http://www.w3.org/2000/svg" viewBox="0 0 327.77 448.54"><defs><style>.cls-1{fill:#026b50;}.cls-1,.cls-2{stroke:#fff;stroke-miterlimit:10;}.cls-2{fill:#e42a29;}.cls-3{fill:#fff;}</style></defs><title>red-!</title><g id="Layer_1" data-name="Layer 1"><path class="cls-1" d="M445.16,262.63c0,90-68,196.91-161.85,284.47-95.85-86.53-163.92-194.51-163.92-284.47a162.89,162.89,0,1,1,325.77,0Z" transform="translate(-117.89 -99.24)"/></g><g id="Layer_4" data-name="Layer 4"><path class="cls-2" d="M444.16,262.63c0,90-68,196.91-161.85,284.47-95.85-86.53-163.92-194.51-163.92-284.47a162.89,162.89,0,1,1,325.77,0Z" transform="translate(-117.89 -99.24)"/></g><g id="_white" data-name="! white"><path class="cls-3" d="M281.35,162.67c12.44,0,30.37,2.19,30.74,16.1a132,132,0,0,1-1.46,16.11c-3.66,23.42-14.28,80.88-20.5,127H272.56c-5.12-42.46-15.73-100.65-20.13-125.91-1.1-4.39-2.56-12.81-2.56-17.2C249.87,166,268.17,162.67,281.35,162.67Z" transform="translate(-117.89 -99.24)"/><path class="cls-3" d="M281.71,410.08c-17.2,0-29.64-12.44-29.64-30.74,0-17.94,12.44-30.38,29.64-30.38,17.57,0,30,12.44,30,30.38C311.72,397.64,299.28,410.08,281.71,410.08Z" transform="translate(-117.89 -99.24)"/></g></svg>